<svg xmlns="http://www.w3.org/2000/svg" xmlns:xlink="http://www.w3.org/1999/xlink" width="500" zoomAndPan="magnify" viewBox="0 0 375 374.999991" height="500" preserveAspectRatio="xMidYMid meet" version="1.0"><defs><g/><clipPath id="f3465c0a6d"><path d="M 31.378906 170 L 139 170 L 139 222 L 31.378906 222 Z M 31.378906 170 " clip-rule="nonzero"/></clipPath><clipPath id="5d3234264b"><path d="M 64 168.667969 L 344 168.667969 L 344 269 L 64 269 Z M 64 168.667969 " clip-rule="nonzero"/></clipPath><clipPath id="c0e334e7a7"><path d="M 31.378906 239 L 272 239 L 272 310 L 31.378906 310 Z M 31.378906 239 " clip-rule="nonzero"/></clipPath><clipPath id="6ed06a1c2a"><path d="M 186 26 L 256 26 L 256 73 L 186 73 Z M 186 26 " clip-rule="nonzero"/></clipPath><clipPath id="d6cbd5398d"><path d="M 174.5 52.875 L 243.671875 9.304688 L 268.855469 49.285156 L 199.683594 92.855469 Z M 174.5 52.875 " clip-rule="nonzero"/></clipPath><clipPath id="fa1617795f"><path d="M 174.5 52.875 L 243.671875 9.304688 L 268.855469 49.285156 L 199.683594 92.855469 Z M 174.5 52.875 " clip-rule="nonzero"/></clipPath><clipPath id="8b5d12e485"><path d="M 200 41 L 253 41 L 253 77 L 200 77 Z M 200 41 " clip-rule="nonzero"/></clipPath><clipPath id="af5e491ad4"><path d="M 174.5 52.875 L 243.671875 9.304688 L 268.855469 49.285156 L 199.683594 92.855469 Z M 174.5 52.875 " clip-rule="nonzero"/></clipPath><clipPath id="c6bc832bf6"><path d="M 174.5 52.875 L 243.671875 9.304688 L 268.855469 49.285156 L 199.683594 92.855469 Z M 174.5 52.875 " clip-rule="nonzero"/></clipPath><clipPath id="53a7f91792"><path d="M 215 56 L 249 56 L 249 80 L 215 80 Z M 215 56 " clip-rule="nonzero"/></clipPath><clipPath id="78f0e68bac"><path d="M 174.5 52.875 L 243.671875 9.304688 L 268.855469 49.285156 L 199.683594 92.855469 Z M 174.5 52.875 " clip-rule="nonzero"/></clipPath><clipPath id="900dbcdfec"><path d="M 174.5 52.875 L 243.671875 9.304688 L 268.855469 49.285156 L 199.683594 92.855469 Z M 174.5 52.875 " clip-rule="nonzero"/></clipPath></defs><g clip-path="url(#f3465c0a6d)"><path fill="#8dc63f" d="M 138.027344 190.140625 C 126.984375 192.371094 115.980469 194.890625 105.027344 197.664062 C 80.183594 204.023438 55.503906 211.652344 31.625 221.886719 L 31.625 170.386719 C 40.207031 171.457031 48.792969 172.644531 57.34375 173.949219 C 83.597656 177.9375 109.742188 182.96875 135.519531 189.464844 C 136.367188 189.6875 137.179688 189.890625 138.027344 190.140625 Z M 138.027344 190.140625 " fill-opacity="1" fill-rule="nonzero"/></g><g clip-path="url(#5d3234264b)"><path fill="#8dc63f" d="M 343.78125 168.660156 L 343.78125 256.730469 C 343.78125 259.105469 343.582031 261.453125 343.164062 263.742188 C 322.613281 264.753906 302.0625 266.203125 281.539062 268.210938 L 281.511719 268.210938 C 277.421875 266.832031 273.351562 265.496094 269.234375 264.222656 C 243.660156 256.277344 217.628906 249.835938 191.367188 244.410156 C 149.53125 235.789062 107.214844 229.714844 64.636719 225.535156 C 78.949219 219.65625 93.625 214.539062 108.476562 209.90625 C 125.25 204.699219 142.269531 200.125 159.4375 196.089844 L 159.464844 196.089844 C 161.210938 195.664062 162.96875 195.238281 164.710938 194.84375 C 171.628906 193.257812 178.570312 191.734375 185.515625 190.296875 C 237.601562 179.570312 290.597656 172.761719 343.78125 168.660156 Z M 343.78125 168.660156 " fill-opacity="1" fill-rule="nonzero"/></g><g clip-path="url(#c0e334e7a7)"><path fill="#8dc63f" d="M 271.539062 269.195312 C 254.769531 270.972656 238.027344 273.097656 221.3125 275.636719 C 194.832031 279.679688 168.433594 284.738281 142.320312 291.355469 C 122.328125 296.46875 102.460938 302.410156 83.007812 309.863281 L 51.867188 291.855469 C 39.332031 284.625 31.625 271.222656 31.625 256.722656 L 31.625 239.59375 C 84.472656 240.867188 137.46875 244.828125 189.894531 252.734375 C 216.144531 256.75 242.289062 261.75 268.066406 268.277344 C 269.226562 268.566406 270.382812 268.878906 271.539062 269.195312 Z M 271.539062 269.195312 " fill-opacity="1" fill-rule="nonzero"/></g><path fill="#8dc63f" d="M 342.730469 265.824219 C 340.839844 274.050781 336.433594 281.484375 330.136719 287.078125 C 329.914062 287.25 329.683594 287.445312 329.460938 287.644531 C 327.628906 289.199219 325.652344 290.609375 323.5 291.855469 L 207.957031 358.648438 C 195.417969 365.910156 179.980469 365.910156 167.414062 358.648438 L 100.28125 319.84375 C 115.105469 313.742188 130.351562 308.394531 145.761719 303.597656 C 171 295.765625 196.808594 289.382812 222.808594 283.976562 C 243.5625 279.710938 264.453125 276.058594 285.457031 272.980469 L 285.484375 272.980469 C 287.800781 272.613281 290.144531 272.277344 292.457031 271.964844 L 292.488281 271.964844 C 309.199219 269.5625 325.941406 267.523438 342.730469 265.824219 Z M 342.730469 265.824219 " fill-opacity="1" fill-rule="nonzero"/><g clip-path="url(#6ed06a1c2a)"><g clip-path="url(#d6cbd5398d)"><g clip-path="url(#fa1617795f)"><path fill="#545454" d="M 192.59375 72.742188 C 196.066406 59.195312 204.566406 48.167969 215.621094 41.203125 C 226.679688 34.238281 240.296875 31.335938 254.011719 34.054688 L 255.460938 27.6875 C 224.515625 21.457031 193.972656 40.695312 186.226562 71.292969 Z M 192.59375 72.742188 " fill-opacity="1" fill-rule="nonzero"/></g></g></g><g clip-path="url(#8b5d12e485)"><g clip-path="url(#af5e491ad4)"><g clip-path="url(#c6bc832bf6)"><path fill="#545454" d="M 252.148438 42.269531 C 241.058594 40.128906 229.734375 42.257812 220.105469 48.320312 C 210.476562 54.386719 203.667969 63.679688 200.808594 74.605469 L 207.179688 76.054688 C 209.648438 66.824219 215.433594 58.980469 223.585938 53.84375 C 231.738281 48.710938 241.308594 46.882812 250.703125 48.640625 Z M 252.148438 42.269531 " fill-opacity="1" fill-rule="nonzero"/></g></g></g><g clip-path="url(#53a7f91792)"><g clip-path="url(#78f0e68bac)"><g clip-path="url(#900dbcdfec)"><path fill="#545454" d="M 247.386719 63.234375 L 248.832031 56.859375 C 241.632812 55.59375 234.316406 57.03125 228.070312 60.964844 C 221.824219 64.898438 217.367188 70.878906 215.398438 77.917969 L 221.773438 79.367188 C 223.402344 73.855469 226.96875 69.371094 231.546875 66.484375 C 236.125 63.601562 241.714844 62.324219 247.386719 63.234375 Z M 247.386719 63.234375 " fill-opacity="1" fill-rule="nonzero"/></g></g></g><g fill="#000000" fill-opacity="0.4"><g transform="translate(33.022026, 146.298801)"><g><path d="M 20.765625 -69.09375 L 20.765625 0 L 5.03125 0 L 5.03125 -69.09375 Z M 20.765625 -69.09375 "/></g></g></g><g fill="#000000" fill-opacity="0.4"><g transform="translate(58.815081, 146.298801)"><g><path d="M 40.109375 -69.09375 L 68 0 L 51.09375 0 L 45.984375 -13.8125 L 19.6875 -13.8125 L 14.578125 0 L -2.34375 0 L 25.546875 -69.09375 Z M 40.625 -27.640625 L 32.90625 -47.734375 L 32.75 -47.734375 L 25.046875 -27.640625 Z M 40.625 -27.640625 "/></g></g></g><g fill="#000000" fill-opacity="0.4"><g transform="translate(124.470122, 146.298801)"><g><path d="M 3.09375 10.546875 L 15.25 4.609375 C 17.476562 8.296875 21.359375 10.140625 26.890625 10.140625 C 29.453125 10.140625 31.835938 9.3125 34.046875 7.65625 C 36.253906 6.007812 37.359375 3.484375 37.359375 0.078125 L 37.359375 -3.09375 C 34.734375 -0.195312 30.039062 1.25 23.28125 1.25 C 17.082031 1.25 11.972656 -0.9375 7.953125 -5.3125 C 3.929688 -9.695312 1.921875 -15.070312 1.921875 -21.4375 C 1.921875 -27.800781 3.929688 -33.1875 7.953125 -37.59375 C 11.972656 -42.007812 17.082031 -44.21875 23.28125 -44.21875 C 28.8125 -44.21875 33.414062 -42.515625 37.09375 -39.109375 L 37.359375 -39.109375 L 37.359375 -42.96875 L 52.171875 -42.96875 L 52.171875 1.171875 C 52.171875 8.148438 49.851562 13.535156 45.21875 17.328125 C 40.59375 21.128906 34.484375 23.03125 26.890625 23.03125 C 14.597656 23.03125 6.664062 18.867188 3.09375 10.546875 Z M 20.5625 -28.71875 C 18.632812 -26.820312 17.671875 -24.394531 17.671875 -21.4375 C 17.671875 -18.476562 18.59375 -16.0625 20.4375 -14.1875 C 22.28125 -12.320312 24.707031 -11.390625 27.71875 -11.390625 C 30.625 -11.390625 33.007812 -12.335938 34.875 -14.234375 C 36.75 -16.128906 37.6875 -18.53125 37.6875 -21.4375 C 37.6875 -24.394531 36.722656 -26.820312 34.796875 -28.71875 C 32.867188 -30.625 30.507812 -31.578125 27.71875 -31.578125 C 24.875 -31.578125 22.488281 -30.625 20.5625 -28.71875 Z M 20.5625 -28.71875 "/></g></g></g><g fill="#000000" fill-opacity="0.4"><g transform="translate(181.667049, 146.298801)"><g><path d="M 5.03125 0 L 5.03125 -42.96875 L 19.84375 -42.96875 L 19.84375 -36.765625 L 20.015625 -36.765625 C 20.128906 -36.984375 20.3125 -37.257812 20.5625 -37.59375 C 20.8125 -37.9375 21.351562 -38.523438 22.1875 -39.359375 C 23.03125 -40.203125 23.925781 -40.957031 24.875 -41.625 C 25.820312 -42.289062 27.046875 -42.890625 28.546875 -43.421875 C 30.054688 -43.953125 31.597656 -44.21875 33.171875 -44.21875 C 34.785156 -44.21875 36.375 -43.992188 37.9375 -43.546875 C 39.5 -43.097656 40.644531 -42.648438 41.375 -42.203125 L 42.546875 -41.546875 L 36.34375 -28.984375 C 34.5 -30.546875 31.929688 -31.328125 28.640625 -31.328125 C 26.859375 -31.328125 25.320312 -30.9375 24.03125 -30.15625 C 22.75 -29.375 21.84375 -28.421875 21.3125 -27.296875 C 20.78125 -26.179688 20.398438 -25.234375 20.171875 -24.453125 C 19.953125 -23.671875 19.84375 -23.054688 19.84375 -22.609375 L 19.84375 0 Z M 5.03125 0 "/></g></g></g><g fill="#000000" fill-opacity="0.4"><g transform="translate(223.3714, 146.298801)"><g><path d="M 1.921875 -34.59375 C 1.921875 -44.582031 5.328125 -53.035156 12.140625 -59.953125 C 18.953125 -66.878906 27.160156 -70.34375 36.765625 -70.34375 C 46.421875 -70.34375 54.625 -66.894531 61.375 -60 C 68.132812 -53.101562 71.515625 -44.632812 71.515625 -34.59375 C 71.515625 -24.488281 68.191406 -15.988281 61.546875 -9.09375 C 54.910156 -2.195312 46.648438 1.25 36.765625 1.25 C 26.660156 1.25 18.328125 -2.164062 11.765625 -9 C 5.203125 -15.84375 1.921875 -24.375 1.921875 -34.59375 Z M 18.921875 -34.59375 C 18.921875 -30.957031 19.476562 -27.644531 20.59375 -24.65625 C 21.71875 -21.675781 23.675781 -19.148438 26.46875 -17.078125 C 29.257812 -15.015625 32.691406 -13.984375 36.765625 -13.984375 C 42.628906 -13.984375 47.050781 -15.992188 50.03125 -20.015625 C 53.019531 -24.035156 54.515625 -28.894531 54.515625 -34.59375 C 54.515625 -40.226562 52.992188 -45.066406 49.953125 -49.109375 C 46.910156 -53.160156 42.515625 -55.1875 36.765625 -55.1875 C 31.066406 -55.1875 26.664062 -53.160156 23.5625 -49.109375 C 20.46875 -45.066406 18.921875 -40.226562 18.921875 -34.59375 Z M 18.921875 -34.59375 "/></g></g></g><g fill="#000000" fill-opacity="0.4"><g transform="translate(296.814588, 146.298801)"><g><path d="M 0.671875 -55.28125 L 0.671875 -69.09375 L 49.25 -69.09375 L 49.25 -55.28125 L 32.828125 -55.28125 L 32.828125 0 L 17.078125 0 L 17.078125 -55.28125 Z M 0.671875 -55.28125 "/></g></g></g><g fill="#545454" fill-opacity="1"><g transform="translate(30.645739, 141.635076)"><g><path d="M 20.765625 -69.09375 L 20.765625 0 L 5.03125 0 L 5.03125 -69.09375 Z M 20.765625 -69.09375 "/></g></g></g><g fill="#545454" fill-opacity="1"><g transform="translate(56.438794, 141.635076)"><g><path d="M 40.109375 -69.09375 L 68 0 L 51.09375 0 L 45.984375 -13.8125 L 19.6875 -13.8125 L 14.578125 0 L -2.34375 0 L 25.546875 -69.09375 Z M 40.625 -27.640625 L 32.90625 -47.734375 L 32.75 -47.734375 L 25.046875 -27.640625 Z M 40.625 -27.640625 "/></g></g></g><g fill="#545454" fill-opacity="1"><g transform="translate(122.093835, 141.635076)"><g><path d="M 3.09375 10.546875 L 15.25 4.609375 C 17.476562 8.296875 21.359375 10.140625 26.890625 10.140625 C 29.453125 10.140625 31.835938 9.3125 34.046875 7.65625 C 36.253906 6.007812 37.359375 3.484375 37.359375 0.078125 L 37.359375 -3.09375 C 34.734375 -0.195312 30.039062 1.25 23.28125 1.25 C 17.082031 1.25 11.972656 -0.9375 7.953125 -5.3125 C 3.929688 -9.695312 1.921875 -15.070312 1.921875 -21.4375 C 1.921875 -27.800781 3.929688 -33.1875 7.953125 -37.59375 C 11.972656 -42.007812 17.082031 -44.21875 23.28125 -44.21875 C 28.8125 -44.21875 33.414062 -42.515625 37.09375 -39.109375 L 37.359375 -39.109375 L 37.359375 -42.96875 L 52.171875 -42.96875 L 52.171875 1.171875 C 52.171875 8.148438 49.851562 13.535156 45.21875 17.328125 C 40.59375 21.128906 34.484375 23.03125 26.890625 23.03125 C 14.597656 23.03125 6.664062 18.867188 3.09375 10.546875 Z M 20.5625 -28.71875 C 18.632812 -26.820312 17.671875 -24.394531 17.671875 -21.4375 C 17.671875 -18.476562 18.59375 -16.0625 20.4375 -14.1875 C 22.28125 -12.320312 24.707031 -11.390625 27.71875 -11.390625 C 30.625 -11.390625 33.007812 -12.335938 34.875 -14.234375 C 36.75 -16.128906 37.6875 -18.53125 37.6875 -21.4375 C 37.6875 -24.394531 36.722656 -26.820312 34.796875 -28.71875 C 32.867188 -30.625 30.507812 -31.578125 27.71875 -31.578125 C 24.875 -31.578125 22.488281 -30.625 20.5625 -28.71875 Z M 20.5625 -28.71875 "/></g></g></g><g fill="#545454" fill-opacity="1"><g transform="translate(179.290761, 141.635076)"><g><path d="M 5.03125 0 L 5.03125 -42.96875 L 19.84375 -42.96875 L 19.84375 -36.765625 L 20.015625 -36.765625 C 20.128906 -36.984375 20.3125 -37.257812 20.5625 -37.59375 C 20.8125 -37.9375 21.351562 -38.523438 22.1875 -39.359375 C 23.03125 -40.203125 23.925781 -40.957031 24.875 -41.625 C 25.820312 -42.289062 27.046875 -42.890625 28.546875 -43.421875 C 30.054688 -43.953125 31.597656 -44.21875 33.171875 -44.21875 C 34.785156 -44.21875 36.375 -43.992188 37.9375 -43.546875 C 39.5 -43.097656 40.644531 -42.648438 41.375 -42.203125 L 42.546875 -41.546875 L 36.34375 -28.984375 C 34.5 -30.546875 31.929688 -31.328125 28.640625 -31.328125 C 26.859375 -31.328125 25.320312 -30.9375 24.03125 -30.15625 C 22.75 -29.375 21.84375 -28.421875 21.3125 -27.296875 C 20.78125 -26.179688 20.398438 -25.234375 20.171875 -24.453125 C 19.953125 -23.671875 19.84375 -23.054688 19.84375 -22.609375 L 19.84375 0 Z M 5.03125 0 "/></g></g></g><g fill="#545454" fill-opacity="1"><g transform="translate(220.995113, 141.635076)"><g><path d="M 1.921875 -34.59375 C 1.921875 -44.582031 5.328125 -53.035156 12.140625 -59.953125 C 18.953125 -66.878906 27.160156 -70.34375 36.765625 -70.34375 C 46.421875 -70.34375 54.625 -66.894531 61.375 -60 C 68.132812 -53.101562 71.515625 -44.632812 71.515625 -34.59375 C 71.515625 -24.488281 68.191406 -15.988281 61.546875 -9.09375 C 54.910156 -2.195312 46.648438 1.25 36.765625 1.25 C 26.660156 1.25 18.328125 -2.164062 11.765625 -9 C 5.203125 -15.84375 1.921875 -24.375 1.921875 -34.59375 Z M 18.921875 -34.59375 C 18.921875 -30.957031 19.476562 -27.644531 20.59375 -24.65625 C 21.71875 -21.675781 23.675781 -19.148438 26.46875 -17.078125 C 29.257812 -15.015625 32.691406 -13.984375 36.765625 -13.984375 C 42.628906 -13.984375 47.050781 -15.992188 50.03125 -20.015625 C 53.019531 -24.035156 54.515625 -28.894531 54.515625 -34.59375 C 54.515625 -40.226562 52.992188 -45.066406 49.953125 -49.109375 C 46.910156 -53.160156 42.515625 -55.1875 36.765625 -55.1875 C 31.066406 -55.1875 26.664062 -53.160156 23.5625 -49.109375 C 20.46875 -45.066406 18.921875 -40.226562 18.921875 -34.59375 Z M 18.921875 -34.59375 "/></g></g></g><g fill="#545454" fill-opacity="1"><g transform="translate(294.438301, 141.635076)"><g><path d="M 0.671875 -55.28125 L 0.671875 -69.09375 L 49.25 -69.09375 L 49.25 -55.28125 L 32.828125 -55.28125 L 32.828125 0 L 17.078125 0 L 17.078125 -55.28125 Z M 0.671875 -55.28125 "/></g></g></g></svg>