<svg xmlns="http://www.w3.org/2000/svg" xmlns:xlink="http://www.w3.org/1999/xlink" width="500" zoomAndPan="magnify" viewBox="0 0 375 374.999991" height="500" preserveAspectRatio="xMidYMid meet" version="1.0"><defs><g/><clipPath id="c40e3cff68"><path d="M 31.378906 170 L 139 170 L 139 222 L 31.378906 222 Z M 31.378906 170 " clip-rule="nonzero"/></clipPath><clipPath id="3bdc830c26"><path d="M 64 168.667969 L 344 168.667969 L 344 269 L 64 269 Z M 64 168.667969 " clip-rule="nonzero"/></clipPath><clipPath id="d9db95f320"><path d="M 31.378906 239 L 272 239 L 272 310 L 31.378906 310 Z M 31.378906 239 " clip-rule="nonzero"/></clipPath><clipPath id="326b691f3d"><path d="M 132.765625 48 L 202.515625 48 L 202.515625 67 L 132.765625 67 Z M 132.765625 48 " clip-rule="nonzero"/></clipPath><clipPath id="ad3608fe38"><path d="M 150 73 L 185 73 L 185 84.425781 L 150 84.425781 Z M 150 73 " clip-rule="nonzero"/></clipPath></defs><g clip-path="url(#c40e3cff68)"><path fill="#8dc63f" d="M 138.027344 190.140625 C 126.984375 192.371094 115.980469 194.890625 105.027344 197.664062 C 80.183594 204.023438 55.503906 211.652344 31.625 221.886719 L 31.625 170.386719 C 40.207031 171.457031 48.792969 172.644531 57.34375 173.949219 C 83.597656 177.9375 109.742188 182.96875 135.519531 189.464844 C 136.367188 189.6875 137.179688 189.890625 138.027344 190.140625 Z M 138.027344 190.140625 " fill-opacity="1" fill-rule="nonzero"/></g><g clip-path="url(#3bdc830c26)"><path fill="#8dc63f" d="M 343.78125 168.660156 L 343.78125 256.730469 C 343.78125 259.105469 343.582031 261.453125 343.164062 263.742188 C 322.613281 264.753906 302.0625 266.203125 281.539062 268.210938 L 281.511719 268.210938 C 277.421875 266.832031 273.351562 265.496094 269.234375 264.222656 C 243.660156 256.277344 217.628906 249.835938 191.367188 244.410156 C 149.53125 235.789062 107.214844 229.714844 64.636719 225.535156 C 78.949219 219.65625 93.625 214.539062 108.476562 209.90625 C 125.25 204.699219 142.269531 200.125 159.4375 196.089844 L 159.464844 196.089844 C 161.210938 195.664062 162.96875 195.238281 164.710938 194.84375 C 171.628906 193.257812 178.570312 191.734375 185.515625 190.296875 C 237.601562 179.570312 290.597656 172.761719 343.78125 168.660156 Z M 343.78125 168.660156 " fill-opacity="1" fill-rule="nonzero"/></g><g clip-path="url(#d9db95f320)"><path fill="#8dc63f" d="M 271.539062 269.195312 C 254.769531 270.972656 238.027344 273.097656 221.3125 275.636719 C 194.832031 279.679688 168.433594 284.738281 142.320312 291.355469 C 122.328125 296.46875 102.460938 302.410156 83.007812 309.863281 L 51.867188 291.855469 C 39.332031 284.625 31.625 271.222656 31.625 256.722656 L 31.625 239.59375 C 84.472656 240.867188 137.46875 244.828125 189.894531 252.734375 C 216.144531 256.75 242.289062 261.75 268.066406 268.277344 C 269.226562 268.566406 270.382812 268.878906 271.539062 269.195312 Z M 271.539062 269.195312 " fill-opacity="1" fill-rule="nonzero"/></g><path fill="#8dc63f" d="M 342.730469 265.824219 C 340.839844 274.050781 336.433594 281.484375 330.136719 287.078125 C 329.914062 287.25 329.683594 287.445312 329.460938 287.644531 C 327.628906 289.199219 325.652344 290.609375 323.5 291.855469 L 207.957031 358.648438 C 195.417969 365.910156 179.980469 365.910156 167.414062 358.648438 L 100.28125 319.84375 C 115.105469 313.742188 130.351562 308.394531 145.761719 303.597656 C 171 295.765625 196.808594 289.382812 222.808594 283.976562 C 243.5625 279.710938 264.453125 276.058594 285.457031 272.980469 L 285.484375 272.980469 C 287.800781 272.613281 290.144531 272.277344 292.457031 271.964844 L 292.488281 271.964844 C 309.199219 269.5625 325.941406 267.523438 342.730469 265.824219 Z M 342.730469 265.824219 " fill-opacity="1" fill-rule="nonzero"/><g clip-path="url(#326b691f3d)"><path fill="#545454" d="M 136.769531 66.335938 C 145.375 58.195312 156.445312 54.125 167.515625 54.125 C 178.585938 54.125 189.660156 58.195312 198.265625 66.335938 L 202.175781 62.421875 C 182.808594 43.984375 152.226562 43.984375 132.855469 62.421875 Z M 136.769531 66.335938 " fill-opacity="1" fill-rule="nonzero"/></g><path fill="#545454" d="M 193.21875 71.382812 C 186.234375 64.839844 177.15625 61.253906 167.515625 61.253906 C 157.875 61.253906 148.796875 64.839844 141.816406 71.382812 L 145.726562 75.296875 C 151.667969 69.796875 159.355469 66.78125 167.515625 66.78125 C 175.679688 66.78125 183.367188 69.796875 189.304688 75.296875 Z M 193.21875 71.382812 " fill-opacity="1" fill-rule="nonzero"/><g clip-path="url(#ad3608fe38)"><path fill="#545454" d="M 180.339844 84.261719 L 184.253906 80.34375 C 179.664062 76.1875 173.769531 73.910156 167.515625 73.910156 C 161.261719 73.910156 155.367188 76.1875 150.777344 80.34375 L 154.695312 84.261719 C 158.347656 81.046875 162.933594 79.441406 167.515625 79.441406 C 172.101562 79.441406 176.683594 81.046875 180.339844 84.261719 Z M 180.339844 84.261719 " fill-opacity="1" fill-rule="nonzero"/></g><g fill="#000000" fill-opacity="0.4"><g transform="translate(33.987519, 149.140671)"><g><path d="M 5.515625 -75.90625 L 33.21875 -75.90625 C 40.9375 -75.90625 47.1875 -73.910156 51.96875 -69.921875 C 56.757812 -65.929688 59.15625 -60.132812 59.15625 -52.53125 C 59.15625 -44.925781 56.734375 -38.960938 51.890625 -34.640625 C 47.046875 -30.316406 40.820312 -28.15625 33.21875 -28.15625 L 22.8125 -28.15625 L 22.8125 0 L 5.515625 0 Z M 22.8125 -41.953125 L 27.6875 -41.953125 C 31.550781 -41.953125 34.722656 -42.734375 37.203125 -44.296875 C 39.691406 -45.859375 40.9375 -48.421875 40.9375 -51.984375 C 40.9375 -55.597656 39.691406 -58.1875 37.203125 -59.75 C 34.722656 -61.3125 31.550781 -62.09375 27.6875 -62.09375 L 22.8125 -62.09375 Z M 22.8125 -41.953125 "/></g></g></g><g fill="#000000" fill-opacity="0.4"><g transform="translate(95.254652, 149.140671)"><g><path d="M 5.515625 0 L 5.515625 -47.203125 L 21.796875 -47.203125 L 21.796875 -40.390625 L 21.984375 -40.390625 C 22.109375 -40.628906 22.304688 -40.929688 22.578125 -41.296875 C 22.859375 -41.671875 23.457031 -42.316406 24.375 -43.234375 C 25.300781 -44.160156 26.285156 -44.988281 27.328125 -45.71875 C 28.367188 -46.457031 29.71875 -47.117188 31.375 -47.703125 C 33.03125 -48.285156 34.71875 -48.578125 36.4375 -48.578125 C 38.207031 -48.578125 39.953125 -48.332031 41.671875 -47.84375 C 43.390625 -47.351562 44.648438 -46.863281 45.453125 -46.375 L 46.734375 -45.625 L 39.921875 -31.828125 C 37.898438 -33.546875 35.082031 -34.40625 31.46875 -34.40625 C 29.5 -34.40625 27.804688 -33.972656 26.390625 -33.109375 C 24.984375 -32.253906 23.988281 -31.210938 23.40625 -29.984375 C 22.832031 -28.765625 22.421875 -27.722656 22.171875 -26.859375 C 21.921875 -26.003906 21.796875 -25.332031 21.796875 -24.84375 L 21.796875 0 Z M 5.515625 0 "/></g></g></g><g fill="#000000" fill-opacity="0.4"><g transform="translate(141.067018, 149.140671)"><g><path d="M 9.96875 -5.609375 C 4.726562 -10.273438 2.109375 -16.253906 2.109375 -23.546875 C 2.109375 -30.847656 4.835938 -36.84375 10.296875 -41.53125 C 15.753906 -46.226562 22.503906 -48.578125 30.546875 -48.578125 C 38.453125 -48.578125 45.117188 -46.210938 50.546875 -41.484375 C 55.984375 -36.765625 58.703125 -30.785156 58.703125 -23.546875 C 58.703125 -16.316406 56.046875 -10.351562 50.734375 -5.65625 C 45.429688 -0.96875 38.703125 1.375 30.546875 1.375 C 22.078125 1.375 15.21875 -0.953125 9.96875 -5.609375 Z M 22.578125 -31.546875 C 20.460938 -29.460938 19.40625 -26.796875 19.40625 -23.546875 C 19.40625 -20.296875 20.414062 -17.644531 22.4375 -15.59375 C 24.46875 -13.539062 27.140625 -12.515625 30.453125 -12.515625 C 33.640625 -12.515625 36.257812 -13.554688 38.3125 -15.640625 C 40.375 -17.722656 41.40625 -20.359375 41.40625 -23.546875 C 41.40625 -26.796875 40.34375 -29.460938 38.21875 -31.546875 C 36.101562 -33.640625 33.515625 -34.6875 30.453125 -34.6875 C 27.328125 -34.6875 24.703125 -33.640625 22.578125 -31.546875 Z M 22.578125 -31.546875 "/></g></g></g><g fill="#000000" fill-opacity="0.4"><g transform="translate(201.874197, 149.140671)"><g><path d="M 8.28125 -47.203125 L 8.28125 -57.21875 C 8.34375 -64.269531 10 -69.910156 13.25 -74.140625 C 16.5 -78.378906 21.003906 -80.5 26.765625 -80.5 C 29.222656 -80.5 31.570312 -80.144531 33.8125 -79.4375 C 36.050781 -78.738281 37.660156 -78.019531 38.640625 -77.28125 L 40.203125 -76.265625 L 34.5 -64.765625 C 33.03125 -65.628906 31.40625 -66.0625 29.625 -66.0625 C 27.601562 -66.0625 26.253906 -65.367188 25.578125 -63.984375 C 24.898438 -62.609375 24.5625 -60.203125 24.5625 -56.765625 L 24.5625 -47.203125 L 35.421875 -47.203125 L 35.421875 -34.78125 L 24.5625 -34.78125 L 24.5625 0 L 8.28125 0 L 8.28125 -34.78125 L 1.46875 -34.78125 L 1.46875 -47.203125 Z M 8.28125 -47.203125 "/></g></g></g><g fill="#000000" fill-opacity="0.4"><g transform="translate(236.371466, 149.140671)"><g><path d="M 7.078125 -73.5 C 8.984375 -75.40625 11.253906 -76.359375 13.890625 -76.359375 C 16.523438 -76.359375 18.789062 -75.40625 20.6875 -73.5 C 22.59375 -71.601562 23.546875 -69.335938 23.546875 -66.703125 C 23.546875 -64.066406 22.59375 -61.796875 20.6875 -59.890625 C 18.789062 -57.992188 16.523438 -57.046875 13.890625 -57.046875 C 11.253906 -57.046875 8.984375 -57.992188 7.078125 -59.890625 C 5.179688 -61.796875 4.234375 -64.066406 4.234375 -66.703125 C 4.234375 -69.335938 5.179688 -71.601562 7.078125 -73.5 Z M 5.515625 -47.203125 L 5.515625 0 L 21.796875 0 L 21.796875 -47.203125 Z M 5.515625 -47.203125 "/></g></g></g><g fill="#000000" fill-opacity="0.4"><g transform="translate(264.153259, 149.140671)"><g><path d="M 5.515625 0 L 5.515625 -79.125 L 21.796875 -79.125 L 21.796875 0 Z M 5.515625 0 "/></g></g></g><g fill="#000000" fill-opacity="0.4"><g transform="translate(291.475085, 149.140671)"><g><path d="M 53.265625 -21.34375 L 19.046875 -21.34375 C 19.046875 -18.03125 20.117188 -15.578125 22.265625 -13.984375 C 24.410156 -12.390625 26.738281 -11.59375 29.25 -11.59375 C 31.894531 -11.59375 33.984375 -11.941406 35.515625 -12.640625 C 37.046875 -13.347656 38.789062 -14.75 40.75 -16.84375 L 52.53125 -10.953125 C 47.625 -2.734375 39.46875 1.375 28.0625 1.375 C 20.945312 1.375 14.84375 -1.0625 9.75 -5.9375 C 4.65625 -10.8125 2.109375 -16.679688 2.109375 -23.546875 C 2.109375 -30.421875 4.65625 -36.3125 9.75 -41.21875 C 14.84375 -46.125 20.945312 -48.578125 28.0625 -48.578125 C 35.539062 -48.578125 41.625 -46.414062 46.3125 -42.09375 C 51.007812 -37.769531 53.359375 -31.585938 53.359375 -23.546875 C 53.359375 -22.441406 53.328125 -21.707031 53.265625 -21.34375 Z M 19.5 -30.359375 L 37.4375 -30.359375 C 37.070312 -32.816406 36.109375 -34.703125 34.546875 -36.015625 C 32.984375 -37.335938 30.972656 -38 28.515625 -38 C 25.816406 -38 23.671875 -37.289062 22.078125 -35.875 C 20.484375 -34.46875 19.625 -32.628906 19.5 -30.359375 Z M 19.5 -30.359375 "/></g></g></g><g fill="#545454" fill-opacity="1"><g transform="translate(31.377161, 144.017557)"><g><path d="M 5.515625 -75.90625 L 33.21875 -75.90625 C 40.9375 -75.90625 47.1875 -73.910156 51.96875 -69.921875 C 56.757812 -65.929688 59.15625 -60.132812 59.15625 -52.53125 C 59.15625 -44.925781 56.734375 -38.960938 51.890625 -34.640625 C 47.046875 -30.316406 40.820312 -28.15625 33.21875 -28.15625 L 22.8125 -28.15625 L 22.8125 0 L 5.515625 0 Z M 22.8125 -41.953125 L 27.6875 -41.953125 C 31.550781 -41.953125 34.722656 -42.734375 37.203125 -44.296875 C 39.691406 -45.859375 40.9375 -48.421875 40.9375 -51.984375 C 40.9375 -55.597656 39.691406 -58.1875 37.203125 -59.75 C 34.722656 -61.3125 31.550781 -62.09375 27.6875 -62.09375 L 22.8125 -62.09375 Z M 22.8125 -41.953125 "/></g></g></g><g fill="#545454" fill-opacity="1"><g transform="translate(92.644293, 144.017557)"><g><path d="M 5.515625 0 L 5.515625 -47.203125 L 21.796875 -47.203125 L 21.796875 -40.390625 L 21.984375 -40.390625 C 22.109375 -40.628906 22.304688 -40.929688 22.578125 -41.296875 C 22.859375 -41.671875 23.457031 -42.316406 24.375 -43.234375 C 25.300781 -44.160156 26.285156 -44.988281 27.328125 -45.71875 C 28.367188 -46.457031 29.71875 -47.117188 31.375 -47.703125 C 33.03125 -48.285156 34.71875 -48.578125 36.4375 -48.578125 C 38.207031 -48.578125 39.953125 -48.332031 41.671875 -47.84375 C 43.390625 -47.351562 44.648438 -46.863281 45.453125 -46.375 L 46.734375 -45.625 L 39.921875 -31.828125 C 37.898438 -33.546875 35.082031 -34.40625 31.46875 -34.40625 C 29.5 -34.40625 27.804688 -33.972656 26.390625 -33.109375 C 24.984375 -32.253906 23.988281 -31.210938 23.40625 -29.984375 C 22.832031 -28.765625 22.421875 -27.722656 22.171875 -26.859375 C 21.921875 -26.003906 21.796875 -25.332031 21.796875 -24.84375 L 21.796875 0 Z M 5.515625 0 "/></g></g></g><g fill="#545454" fill-opacity="1"><g transform="translate(138.456659, 144.017557)"><g><path d="M 9.96875 -5.609375 C 4.726562 -10.273438 2.109375 -16.253906 2.109375 -23.546875 C 2.109375 -30.847656 4.835938 -36.84375 10.296875 -41.53125 C 15.753906 -46.226562 22.503906 -48.578125 30.546875 -48.578125 C 38.453125 -48.578125 45.117188 -46.210938 50.546875 -41.484375 C 55.984375 -36.765625 58.703125 -30.785156 58.703125 -23.546875 C 58.703125 -16.316406 56.046875 -10.351562 50.734375 -5.65625 C 45.429688 -0.96875 38.703125 1.375 30.546875 1.375 C 22.078125 1.375 15.21875 -0.953125 9.96875 -5.609375 Z M 22.578125 -31.546875 C 20.460938 -29.460938 19.40625 -26.796875 19.40625 -23.546875 C 19.40625 -20.296875 20.414062 -17.644531 22.4375 -15.59375 C 24.46875 -13.539062 27.140625 -12.515625 30.453125 -12.515625 C 33.640625 -12.515625 36.257812 -13.554688 38.3125 -15.640625 C 40.375 -17.722656 41.40625 -20.359375 41.40625 -23.546875 C 41.40625 -26.796875 40.34375 -29.460938 38.21875 -31.546875 C 36.101562 -33.640625 33.515625 -34.6875 30.453125 -34.6875 C 27.328125 -34.6875 24.703125 -33.640625 22.578125 -31.546875 Z M 22.578125 -31.546875 "/></g></g></g><g fill="#545454" fill-opacity="1"><g transform="translate(199.263838, 144.017557)"><g><path d="M 8.28125 -47.203125 L 8.28125 -57.21875 C 8.34375 -64.269531 10 -69.910156 13.25 -74.140625 C 16.5 -78.378906 21.003906 -80.5 26.765625 -80.5 C 29.222656 -80.5 31.570312 -80.144531 33.8125 -79.4375 C 36.050781 -78.738281 37.660156 -78.019531 38.640625 -77.28125 L 40.203125 -76.265625 L 34.5 -64.765625 C 33.03125 -65.628906 31.40625 -66.0625 29.625 -66.0625 C 27.601562 -66.0625 26.253906 -65.367188 25.578125 -63.984375 C 24.898438 -62.609375 24.5625 -60.203125 24.5625 -56.765625 L 24.5625 -47.203125 L 35.421875 -47.203125 L 35.421875 -34.78125 L 24.5625 -34.78125 L 24.5625 0 L 8.28125 0 L 8.28125 -34.78125 L 1.46875 -34.78125 L 1.46875 -47.203125 Z M 8.28125 -47.203125 "/></g></g></g><g fill="#545454" fill-opacity="1"><g transform="translate(233.761107, 144.017557)"><g><path d="M 7.078125 -73.5 C 8.984375 -75.40625 11.253906 -76.359375 13.890625 -76.359375 C 16.523438 -76.359375 18.789062 -75.40625 20.6875 -73.5 C 22.59375 -71.601562 23.546875 -69.335938 23.546875 -66.703125 C 23.546875 -64.066406 22.59375 -61.796875 20.6875 -59.890625 C 18.789062 -57.992188 16.523438 -57.046875 13.890625 -57.046875 C 11.253906 -57.046875 8.984375 -57.992188 7.078125 -59.890625 C 5.179688 -61.796875 4.234375 -64.066406 4.234375 -66.703125 C 4.234375 -69.335938 5.179688 -71.601562 7.078125 -73.5 Z M 5.515625 -47.203125 L 5.515625 0 L 21.796875 0 L 21.796875 -47.203125 Z M 5.515625 -47.203125 "/></g></g></g><g fill="#545454" fill-opacity="1"><g transform="translate(261.5429, 144.017557)"><g><path d="M 5.515625 0 L 5.515625 -79.125 L 21.796875 -79.125 L 21.796875 0 Z M 5.515625 0 "/></g></g></g><g fill="#545454" fill-opacity="1"><g transform="translate(288.864726, 144.017557)"><g><path d="M 53.265625 -21.34375 L 19.046875 -21.34375 C 19.046875 -18.03125 20.117188 -15.578125 22.265625 -13.984375 C 24.410156 -12.390625 26.738281 -11.59375 29.25 -11.59375 C 31.894531 -11.59375 33.984375 -11.941406 35.515625 -12.640625 C 37.046875 -13.347656 38.789062 -14.75 40.75 -16.84375 L 52.53125 -10.953125 C 47.625 -2.734375 39.46875 1.375 28.0625 1.375 C 20.945312 1.375 14.84375 -1.0625 9.75 -5.9375 C 4.65625 -10.8125 2.109375 -16.679688 2.109375 -23.546875 C 2.109375 -30.421875 4.65625 -36.3125 9.75 -41.21875 C 14.84375 -46.125 20.945312 -48.578125 28.0625 -48.578125 C 35.539062 -48.578125 41.625 -46.414062 46.3125 -42.09375 C 51.007812 -37.769531 53.359375 -31.585938 53.359375 -23.546875 C 53.359375 -22.441406 53.328125 -21.707031 53.265625 -21.34375 Z M 19.5 -30.359375 L 37.4375 -30.359375 C 37.070312 -32.816406 36.109375 -34.703125 34.546875 -36.015625 C 32.984375 -37.335938 30.972656 -38 28.515625 -38 C 25.816406 -38 23.671875 -37.289062 22.078125 -35.875 C 20.484375 -34.46875 19.625 -32.628906 19.5 -30.359375 Z M 19.5 -30.359375 "/></g></g></g></svg>